<?xml version="1.0" encoding="UTF-8"?><svg id="Capa_2" xmlns="http://www.w3.org/2000/svg" viewBox="0 0 510.57 71.13"><defs><style>.cls-1{fill:#780ae9;}</style></defs><g id="Capa_1-2"><g><path class="cls-1" d="M61.87,36.54H30.98s-.02,0-.03,.02l-7.04,21.37c-.55,1.67-2.1,2.79-3.86,2.79H4.06c-2.76,0-4.72-2.71-3.85-5.33L7.96,31.85c1.1-3.33,4.21-5.58,7.71-5.58H61.3c.99,0,1.77-.84,1.69-1.84-.08-.9-.91-1.54-1.81-1.54H16.52c-2.76,0-4.72-2.71-3.85-5.33l3.94-11.97c1.1-3.33,4.21-5.58,7.71-5.58h44.23c5.53,0,9.44,5.41,7.71,10.66l-6.68,20.3c-1.1,3.33-4.21,5.58-7.71,5.58Z"/><path class="cls-1" d="M138.63,21.04l-11.23,34.1c-1.1,3.33-4.2,5.58-7.71,5.58h-49.84c-2.76,0-4.72-2.71-3.86-5.33l3.23-9.8c1.1-3.33,4.21-5.58,7.71-5.58h26.23c1.38,0,2.36,1.35,1.93,2.66l-.47,1.45c-.54,1.67-2.1,2.8-3.86,2.8h-7.8c-.85,0-1.59,.63-1.68,1.52-.11,1.02,.74,1.86,1.76,1.86h10.2c1.75,0,3.3-1.12,3.85-2.78l1.94-5.86c.87-2.63-1.09-5.34-3.85-5.34h-27.31c-2.76,0-4.72-2.7-3.85-5.33l4.96-15.03c1.1-3.33,4.21-5.58,7.71-5.58h44.23c5.53,0,9.44,5.41,7.71,10.66Z"/><path class="cls-1" d="M190.31,10.27h13.14c2.76,0,4.72,2.7,3.86,5.33l-13.02,39.54c-.11,.33-.24,.65-.39,.96-1.33,2.79-4.16,4.62-7.32,4.62h-49.84c-2.76,0-4.72-2.71-3.86-5.33l13.02-39.54c1.1-3.33,4.21-5.58,7.71-5.58h13.07c2.77,0,4.72,2.71,3.85,5.34l-4.94,14.77c-.55,1.65-2.1,2.77-3.85,2.77h-10.64c-.99,0-1.77,.84-1.68,1.84,.08,.9,.91,1.54,1.8,1.54h24.55s.02-.01,.03-.02l6.8-20.67c1.1-3.33,4.2-5.58,7.71-5.58Z"/><path class="cls-1" d="M257.79,50.23c2.54,0,4.34,2.49,3.55,4.9-1.1,3.33-4.2,5.58-7.71,5.58h-49.84c-2.76,0-4.72-2.71-3.86-5.33l12.99-39.43c1.1-3.33,4.2-5.58,7.71-5.58h44.23c5.53,0,9.44,5.41,7.71,10.66l-6.69,20.31c-1.1,3.33-4.21,5.58-7.71,5.58h-27.51c-1.38,0-2.36-1.35-1.93-2.66l.47-1.45c.54-1.67,2.1-2.8,3.86-2.8h6.09c1.75,0,3.3-1.12,3.85-2.78l.43-1.31c.44-1.31-.54-2.67-1.93-2.67h-9.81c-1.75,0-3.3,1.12-3.85,2.78l-3.56,10.74c-.56,1.7,.7,3.45,2.49,3.45h31.02Z"/><path class="cls-1" d="M307.66,5.33l-13.28,40.33h5.55c2.77,0,4.72,2.7,3.86,5.33l-2.25,6.83c-.55,1.67-2.1,2.79-3.85,2.79h-8.22l-.04,.11h-19.02c-2.76,0-4.72-2.71-3.86-5.33l8.67-26.32,7.74-23.49c.11-.33,.24-.65,.39-.96,1.33-2.79,4.16-4.62,7.32-4.62h13.15c2.76,0,4.72,2.7,3.85,5.33Z"/><path class="cls-1" d="M362.49,50.23c2.54,0,4.34,2.49,3.55,4.9-1.1,3.33-4.2,5.58-7.71,5.58h-49.84c-2.76,0-4.72-2.71-3.86-5.33l12.99-39.43c1.1-3.33,4.2-5.58,7.71-5.58h44.23c5.53,0,9.44,5.41,7.71,10.66l-6.69,20.31c-1.1,3.33-4.21,5.58-7.71,5.58h-27.51c-1.38,0-2.36-1.35-1.93-2.66l.47-1.45c.54-1.67,2.1-2.8,3.86-2.8h6.09c1.75,0,3.3-1.12,3.85-2.78l.43-1.31c.44-1.31-.54-2.67-1.93-2.67h-9.81c-1.75,0-3.3,1.12-3.85,2.78l-3.56,10.74c-.56,1.7,.7,3.45,2.49,3.45h31.02Z"/><path class="cls-1" d="M367.65,65.8l6.95-20.72c1.1-3.33,4.21-5.58,7.71-5.58h44c.99,0,1.78-.85,1.68-1.87-.09-.88-.9-1.52-1.78-1.52h-43.05c-2.77,0-4.72-2.7-3.86-5.33l4.81-15.07c1.1-3.33,4.21-5.58,7.71-5.58h49.84c2.76,0,4.72,2.7,3.86,5.33l-9.31,28.76c-1.1,3.33-4.21,5.58-7.71,5.58h-30.82l-5.32,15.74c-.11,.33-.24,.65-.39,.96-1.33,2.79-4.16,4.62-7.32,4.62h-13.14c-2.76,0-4.72-2.7-3.85-5.33Z"/><path class="cls-1" d="M495.38,50.23c2.54,0,4.34,2.49,3.55,4.9-1.1,3.33-4.2,5.58-7.71,5.58h-49.84c-2.76,0-4.72-2.71-3.86-5.33l12.99-39.43c1.1-3.33,4.2-5.58,7.71-5.58h44.23c5.53,0,9.44,5.41,7.71,10.66l-6.69,20.31c-1.1,3.33-4.21,5.58-7.71,5.58h-27.51c-1.38,0-2.36-1.35-1.93-2.66l.47-1.45c.54-1.67,2.1-2.8,3.86-2.8h6.09c1.75,0,3.3-1.12,3.85-2.78l.43-1.31c.44-1.31-.54-2.67-1.93-2.67h-9.81c-1.75,0-3.3,1.12-3.85,2.78l-3.56,10.74c-.56,1.7,.7,3.45,2.49,3.45h31.02Z"/></g></g></svg>