<?xml version="1.0" encoding="UTF-8"?><svg id="Capa_2" xmlns="http://www.w3.org/2000/svg" xmlns:xlink="http://www.w3.org/1999/xlink" viewBox="0 0 217.83 365"><defs><style>.cls-1{fill:#fff;}.cls-2{fill:#ed1d24;}.cls-3{clip-path:url(#clippath);}.cls-4{fill:none;}</style><clipPath id="clippath"><rect class="cls-4" x="0" y="0" width="217.83" height="364.99"/></clipPath></defs><g id="Layer_1"><g><rect class="cls-2" width="217.83" height="364.99"/><polygon class="cls-1" points="123.76 157.41 165.72 157.41 165.72 257.52 123.76 157.41"/><polygon class="cls-1" points="94.18 157.41 52.17 157.41 52.17 257.52 94.18 157.41"/><polygon class="cls-1" points="108.96 194.3 135.71 257.52 118.18 257.52 110.17 237.38 90.59 237.38 108.96 194.3"/><g class="cls-3"><path class="cls-1" d="M174.3,157.41c2.69,0,4.83,2.16,4.83,4.86s-2.14,4.91-4.85,4.91-4.9-2.17-4.9-4.91,2.2-4.86,4.9-4.86h.02Zm-.02,.83c-2.15,0-3.88,1.81-3.88,4.05s1.73,4.06,3.9,4.06c2.14,.02,3.86-1.8,3.86-4.06s-1.72-4.05-3.86-4.05h-.02Zm-.89,6.87h-.98v-5.41c.46-.08,.91-.16,1.63-.16,.87,0,1.41,.17,1.77,.45l.47,1.11c0,.7-.46,1.16-1.05,1.31v.05c.48,.09,.78,.52,.89,1.32,.14,.85,.25,1.18,.34,1.34h-1c-.13-.16-.24-.66-.35-1.38-.11-.64-.47-.92-1.14-.92h-.57v2.3Zm0-3.05h.59c.7,0,1.29-.24,1.29-.87,0-.48-.34-.92-1.25-.92l-.63,.02v1.77Z"/><path class="cls-1" d="M67.42,299.37l-1.33-7.85c-.39-2.28-.86-5.81-1.22-8.26h-.13c-.4,2.46-.94,6.1-1.34,8.27l-1.43,7.83h5.45Zm-6.17,5.13l-1.73,8.71h-6.41l7.98-36.27h7.83l7.24,36.27h-6.43l-1.69-8.71h-6.8Z"/><path class="cls-1" d="M90.71,297.01l-.1-1.57c-.25-1.78-1.22-3.41-2.75-3.41-2.61,0-3.59,3.79-3.59,8.22,0,5.1,1.39,8.01,3.49,8.01,.98,0,2.11-.5,2.72-2.64,.14-.42,.22-1,.22-1.67v-6.94Zm6.58-21.04v29.72c0,2.37,.12,5.25,.21,7.53h-5.68l-.38-3.03h-.13c-.95,1.87-3.02,3.46-5.49,3.46-5.43,0-8.12-5.97-8.12-13.52,0-9.18,4.03-13.64,8.38-13.64,2.27,0,3.77,1.11,4.51,2.72h.11v-13.24h6.58Z"/><path class="cls-1" d="M110.94,308.63c2.5,0,3.13-4.7,3.13-8.61,0-3.69-.64-8.51-3.24-8.51-2.77,0-3.36,4.82-3.36,8.51,0,4.48,.74,8.61,3.41,8.61h.06Zm-.13,5.02c-6.03,0-9.83-4.85-9.83-13.52,0-9.45,4.88-13.64,9.98-13.64,5.98,0,9.73,5.08,9.73,13.5,0,10.82-5.86,13.66-9.82,13.66h-.05Z"/><path class="cls-1" d="M130.91,303.83c0,.65,.11,1.26,.25,1.67,.66,2.21,1.78,2.75,2.67,2.75,2.53,0,3.57-3.2,3.57-8.34,0-4.66-1.1-7.89-3.6-7.89-1.25,0-2.29,1.36-2.65,2.8l-.24,1.66v7.33Zm-6.56-27.86h6.56v13.69h.1c1.3-2.01,3.02-3.17,5.53-3.17,4.94,0,7.43,5.61,7.43,12.91,0,9.28-3.72,14.25-8.51,14.25-2.31,0-3.83-1.02-5.2-3.59h-.14l-.36,3.15h-5.63c.09-2.19,.22-5.15,.22-7.52v-29.72Z"/><path class="cls-1" d="M159.69,297.57c.02-3.7-1.04-6.3-3.13-6.3-2.39,0-3.39,3.49-3.46,6.3h6.6Zm-6.63,4.62c.08,4.76,2.58,6.31,5.7,6.31,1.99,0,3.68-.43,4.93-.92l.9,4.7c-1.75,.75-4.44,1.22-7.02,1.22-7.04,0-10.88-4.78-10.88-12.97,0-8.8,4.45-14.06,10.28-14.06s8.76,4.65,8.76,12.28c0,1.73-.08,2.71-.21,3.48l-12.46-.04Z"/></g></g></g></svg>