<?xml version="1.0" encoding="UTF-8"?><svg id="Capa_2" xmlns="http://www.w3.org/2000/svg" viewBox="0 0 180.7 136.2"><defs><style>.cls-1{fill:#fff;}</style></defs><g id="Capa_1-2"><path id="_256" class="cls-1" d="M162.1,21.3C149.4,7.6,131.5-.1,112.9,0,94.7,0,76.2,7.8,64.3,20.4c-2.2-.2-4.4-.4-6.5-.4C22.1,20,0,50,0,77.8c.1,15,5.9,29.4,16.2,40.4,10.8,11.5,25.8,18,41.6,18h55.1c37.4,0,67.8-30.7,67.8-68.3-.2-17.3-6.8-33.9-18.6-46.6ZM56.7,126.4c-26.5,0-47.9-21.5-47.9-48S30.1,30.7,56.5,30.5c11.7,0,23.1,4.3,31.8,12.1l.2,.2,19.9,20.4c3.3,3.4,3.2,8.8-.2,12.1-3.4,3.3-8.8,3.2-12.1-.2l-19.6-20.2c-12.8-11-32.1-9.6-43.1,3.2-4.8,5.5-7.4,12.6-7.4,19.9,0,16.8,14.3,31,31.2,31h3.9v.1c5.6,7.8,21.3,17.3,21.3,17.3h-25.7Zm98.2-17.2c-10.7,11.2-25.5,17.5-41,17.6-14.7,0-29.7-6.6-41.2-18l-26.2-26.4c-3.3-3.4-3.2-8.8,.1-12.1,1.6-1.6,3.7-2.4,6-2.4s4.5,.9,6.1,2.6l26.1,26.1c8.3,8.3,18.9,13,29.1,13,10.9,0,21.3-4.5,28.8-12.5,7.7-7.9,12-18.5,12-29.5,0-22.6-18.4-40.9-41-41-8.6,0-15.7,1.7-22.7,6.6-.1-.1-2-1.3-4.1-2.6-1.3-.8-2.7-1.6-3.9-2.2-1.2-.7-4.8-2.4-6.9-3.3-.5-.2-1.2-.5-1.5-.6h.1c10.8-10.1,24.2-15,39-15,32.1,0,58,26,58.1,58.1,0,15.5-6,30.5-16.9,41.6h0Z"/></g></svg>