<?xml version="1.0" encoding="UTF-8"?><svg id="Capa_2" xmlns="http://www.w3.org/2000/svg" viewBox="0 0 179.27 184.05"><defs><style>.cls-1{fill:#fff;}</style></defs><g id="Capa_1-2"><g><path class="cls-1" d="M171.63,136.79c-.43,.76-.79,1.49-1.23,2.16-17.29,26.96-41.79,42.73-73.78,44.84-37.64,2.48-66.81-13.13-87.63-44.51-1.12-1.69-1.14-2.79,.83-3.6,2.02-.83,1.76-1.99,.86-3.68C-15.33,83.33,8.08,23.19,60.08,5.05c53.85-18.79,111.39,16.92,118.47,73.51,2.32,18.53-1,36.03-9.51,52.6-1.55,3.01-1.56,3,1.36,4.77,.37,.23,.72,.5,1.22,.86Zm-11.25-6.27c.48,.2,.91,.33,1.29,.54,3.05,1.67,2.76,2.29,4.7-1.46,8.47-16.39,11.49-33.77,8.93-52.01C168.74,30.89,126.26-1.7,79.28,3.78,19.15,10.8-15.37,76.9,13.23,130.28c.4,.76,.93,1.45,1.43,2.21,1.51-.85,2.79-1.57,4.04-2.27,16.55,26.03,39.77,40.64,70.72,40.72,31.03,.08,54.36-14.5,70.96-40.42Z"/><path class="cls-1" d="M149.05,123.23c-.45-.04-.61-.01-.74-.07q-3.83-1.72-6.16,1.74c-14.62,21.73-41.05,32.22-66.54,26.43-25.58-5.81-44.86-26.72-48.67-52.77C21.59,61.87,49.45,28.16,86.55,26.47c3.07-.14,3.19-.14,3.16-3.22-.02-2.04,1.17-1.88,2.48-1.82,20.76,1.03,38.12,9.34,50.77,25.77,17.56,22.8,19.64,47.63,7.4,73.66-.38,.8-.86,1.56-1.32,2.37Zm-11.39-6.26c9.43-18.37,10.01-36.87-.43-54.88-10.42-17.98-26.75-26.72-47.25-27.71q-.69-5.01-5.56-4.61c-33.94,2.81-58.85,33.7-54.48,67.55,3.16,24.49,21.24,44.78,45.11,50.66,24.36,5.99,49.71-3.55,63.99-24.11q2.72-3.91-1.08-6.5c-.06-.04-.09-.12-.31-.4Z"/><path class="cls-1" d="M55.37,109.53c-2.82-4.53-4.37-9.4-5.08-14.53-3.12-22.42,13.49-43.1,36.01-44.87,3.12-.25,3.26-.24,3.16,2.78-.06,1.95,.91,2.14,2.45,2.25,17.16,1.18,31.05,14.78,32.22,31.51,1.24,17.72-10.07,33.3-27.22,36.75-14.38,2.89-26.21-1.81-35.25-13.38-2.08-2.66-2-2.72-4.93-1.1-.38,.21-.79,.36-1.36,.61Zm11.07-6.61c-.61,.42-1.09,.77-1.59,1.08q-2.61,1.62-.78,4.15c8.42,11.67,23.85,16.15,37.23,10.81,13.36-5.33,21.62-19.27,19.67-33.2-2.06-14.72-13.38-25.89-27.85-27.49q-3.52-.39-3.62,3.03c-.02,.57-.14,1.14-.21,1.68-20.21,.89-32.46,21.76-22.85,39.94Z"/></g></g></svg>