<?xml version="1.0" encoding="UTF-8"?><svg id="Capa_2" xmlns="http://www.w3.org/2000/svg" viewBox="0 0 37.35 35.92"><defs><style>.cls-1{fill:#ff4500;}</style></defs><g id="Capa_1-2"><g><g><path d="M27.69,35.25c-.55,0-1.08-.13-1.59-.4l-6.47-3.4c-.3-.16-.63-.24-.96-.24s-.67,.08-.96,.24l-6.47,3.4c-.5,.26-1.04,.4-1.59,.4-1,0-1.96-.45-2.62-1.23-.65-.77-.92-1.75-.74-2.76l1.24-7.21c.12-.67-.11-1.36-.59-1.83L1.7,17.12c-.94-.91-1.27-2.25-.86-3.49,.4-1.24,1.46-2.13,2.75-2.32l7.24-1.05c.67-.1,1.26-.52,1.56-1.13l3.24-6.56c.58-1.17,1.75-1.9,3.06-1.9s2.48,.73,3.06,1.9l3.24,6.56c.3,.61,.88,1.03,1.56,1.13l7.24,1.05c1.29,.19,2.35,1.08,2.75,2.32,.4,1.24,.07,2.58-.86,3.49l-5.24,5.1c-.49,.48-.71,1.16-.6,1.83l1.24,7.21c.17,1.01-.09,1.99-.74,2.76-.66,.78-1.61,1.23-2.62,1.23Z"/><path class="cls-1" d="M18.67,1.34c.98,0,1.95,.51,2.46,1.53l3.24,6.56c.4,.81,1.17,1.37,2.06,1.5l7.24,1.05c2.25,.33,3.14,3.09,1.52,4.67l-5.24,5.1c-.65,.63-.94,1.54-.79,2.42l1.24,7.21c.3,1.77-1.1,3.21-2.7,3.21-.42,0-.86-.1-1.27-.32l-6.47-3.4c-.4-.21-.84-.31-1.27-.31s-.88,.1-1.27,.31l-6.47,3.4c-.42,.22-.85,.32-1.27,.32-1.6,0-3-1.44-2.7-3.21l1.24-7.21c.15-.89-.14-1.79-.79-2.42l-5.24-5.1c-1.62-1.58-.73-4.34,1.52-4.67l7.24-1.05c.89-.13,1.66-.69,2.06-1.5l3.24-6.56c.5-1.02,1.48-1.53,2.46-1.53m0-1.34c-1.56,0-2.96,.87-3.66,2.27l-3.24,6.56c-.2,.41-.6,.7-1.05,.77l-7.24,1.05c-1.55,.22-2.81,1.29-3.29,2.77-.48,1.49-.09,3.09,1.03,4.18l5.24,5.1c.33,.32,.48,.78,.4,1.24l-1.24,7.21c-.2,1.19,.12,2.39,.89,3.31,.78,.93,1.92,1.46,3.13,1.46,.66,0,1.3-.16,1.9-.47l6.47-3.4c.2-.11,.43-.16,.65-.16s.45,.06,.65,.16l6.47,3.4c.6,.31,1.24,.47,1.9,.47,1.2,0,2.34-.53,3.13-1.46,.77-.91,1.09-2.12,.89-3.31l-1.24-7.21c-.08-.45,.07-.92,.4-1.24l5.24-5.1c1.12-1.09,1.51-2.69,1.03-4.18-.48-1.49-1.74-2.55-3.29-2.77l-7.24-1.05c-.46-.07-.85-.35-1.05-.77l-3.24-6.56c-.69-1.4-2.09-2.27-3.66-2.27h0Z"/></g><g><g><path class="cls-1" d="M22.23,13.43c.85,0,1.54,.69,1.54,1.54s-.69,1.54-1.54,1.54-1.54-.69-1.54-1.54,.69-1.54,1.54-1.54m0-1.25c-1.54,0-2.79,1.25-2.79,2.79s1.25,2.79,2.79,2.79,2.79-1.25,2.79-2.79-1.25-2.79-2.79-2.79h0Z"/><path class="cls-1" d="M15.12,13.43c.85,0,1.54,.69,1.54,1.54s-.69,1.54-1.54,1.54-1.54-.69-1.54-1.54,.69-1.54,1.54-1.54m0-1.25c-1.54,0-2.79,1.25-2.79,2.79s1.25,2.79,2.79,2.79,2.79-1.25,2.79-2.79-1.25-2.79-2.79-2.79h0Z"/></g><path class="cls-1" d="M25.28,23.74h-1.25c0-2.18-2.4-3.96-5.35-3.96s-5.35,1.77-5.35,3.96h-1.25c0-2.87,2.96-5.21,6.6-5.21s6.6,2.34,6.6,5.21Z"/></g></g></g></svg>