<?xml version="1.0" encoding="UTF-8"?><svg id="Capa_2" xmlns="http://www.w3.org/2000/svg" viewBox="0 0 100.33 92.04"><defs><style>.cls-1{fill:#e6d4f7;}.cls-2{fill:#d2aaf9;}.cls-3{fill:#f2f2f2;}.cls-4{fill:none;stroke:#a773f9;stroke-linecap:round;stroke-miterlimit:10;stroke-width:5px;}</style></defs><g id="Capa_1-2"><g><path class="cls-2" d="M17.44,8.63h12.33c4.12,0,8.01,1.89,10.56,5.12h0c.83,1.05,2.09,1.66,3.42,1.66h39.14c7.43,0,13.45,6.02,13.45,13.45v20.38H4V22.08c0-7.43,6.02-13.45,13.45-13.45Z"/><g><rect class="cls-3" x="18.55" width="63.24" height="84.63" rx="12" ry="12"/><line class="cls-4" x1="26.22" y1="32" x2="74.12" y2="32"/><line class="cls-4" x1="26.22" y1="48" x2="74.12" y2="48"/><line class="cls-4" x1="26.22" y1="16" x2="74.12" y2="16"/></g><path class="cls-1" d="M17.39,27.04H82.94c10.19,0,18.19,8.72,17.33,18.87l-2.58,30.21c-.77,9-8.3,15.92-17.33,15.92H19.97c-9.03,0-16.56-6.91-17.33-15.92L.06,45.91c-.87-10.15,7.14-18.87,17.33-18.87Z"/></g></g></svg>