<?xml version="1.0" encoding="UTF-8"?><svg id="Capa_2" xmlns="http://www.w3.org/2000/svg" viewBox="0 0 194.5 178.42"><defs><style>.cls-1{fill:#f7d7aa;}.cls-2{fill:#f2b876;}.cls-3{fill:#f9c580;}.cls-4{fill:#f2f2f2;}</style></defs><g id="Capa_1-2"><g><path class="cls-3" d="M33.81,16.73h23.91c7.98,0,15.52,3.66,20.46,9.92h0c1.6,2.03,4.05,3.22,6.63,3.22h75.87c14.4,0,26.07,11.67,26.07,26.07v39.51H7.75V42.8c0-14.4,11.67-26.07,26.07-26.07Z"/><rect class="cls-4" x="35.95" width="122.59" height="164.06" rx="12" ry="12"/><path class="cls-2" d="M143.68,66.88H50.82c-2.68,0-4.85-2.17-4.85-4.85s2.17-4.85,4.85-4.85h92.85c2.68,0,4.85,2.17,4.85,4.85s-2.17,4.85-4.85,4.85Z"/><path class="cls-2" d="M143.68,97.9H50.82c-2.68,0-4.85-2.17-4.85-4.85s2.17-4.85,4.85-4.85h92.85c2.68,0,4.85,2.17,4.85,4.85s-2.17,4.85-4.85,4.85Z"/><path class="cls-2" d="M143.68,35.86H50.82c-2.68,0-4.85-2.17-4.85-4.85s2.17-4.85,4.85-4.85h92.85c2.68,0,4.85,2.17,4.85,4.85s-2.17,4.85-4.85,4.85Z"/><path class="cls-1" d="M33.72,52.42h127.07c19.75,0,35.27,16.9,33.59,36.58l-4.99,58.57c-1.49,17.45-16.08,30.85-33.59,30.85H38.71c-17.51,0-32.11-13.41-33.59-30.85L.12,89c-1.68-19.68,13.84-36.58,33.59-36.58Z"/></g></g></svg>