<?xml version="1.0" encoding="UTF-8"?><svg id="Capa_2" xmlns="http://www.w3.org/2000/svg" viewBox="0 0 58.05 56.59"><defs><style>.cls-1{fill:#fff;}.cls-2{fill:#000b1d;}</style></defs><g id="Capa_1-2"><g><g id="Layer_2"><g id="DC_EC_Logo_Surface"><g id="Outline_no_shadow"><path class="cls-2" d="M10.28,0H47.77c5.68,0,10.28,4.6,10.28,10.28V46.32c0,5.68-4.6,10.28-10.28,10.28H10.28c-5.68,0-10.28-4.6-10.28-10.28V10.28C0,4.6,4.6,0,10.28,0Z"/></g></g></g><g id="Layer_3"><g id="Layer_86"><path id="_64" class="cls-1" d="M46.68,32.77c-2.68-2.85-10.11-1.69-11.85-1.4-2.56-2.49-4.35-5.44-4.96-6.53,.97-2.76,1.6-5.68,1.69-8.56,0-2.61-1.04-5.42-3.94-5.42-1.02,.02-1.93,.58-2.44,1.43-1.23,2.13-.75,6.53,1.23,10.98-1.16,3.27-2.83,7.98-5.03,11.8-2.97,1.19-9.29,4.09-9.89,7.3-.19,.94,.15,1.91,.87,2.56,.7,.63,1.62,.94,2.56,.92,3.8,0,7.59-5.27,10.16-9.8,2.15-.75,5.59-1.74,9.05-2.37,4.01,3.51,7.59,4.04,9.41,4.04,2.47,0,3.39-1.06,3.72-1.96,.36-1.02,.15-2.18-.58-3Zm-2.61,1.84c-.12,.7-1.02,1.4-2.68,1.04-1.93-.48-3.75-1.4-5.27-2.66,1.31-.22,4.35-.51,6.51-.1,.77,.15,1.67,.58,1.45,1.72ZM26.75,13.21c.17-.31,.48-.53,.85-.53,.92,0,1.11,1.11,1.11,2.03-.12,2.2-.6,4.45-1.21,6.46-1.55-4.11-1.33-6.97-.75-7.96Zm-.22,20.1c.82-1.62,1.98-4.57,2.39-5.76,.92,1.52,2.47,3.43,3.29,4.31,.02-.02-3.14,.63-5.68,1.45Zm-6.07,4.16c-2.44,3.92-4.84,6.38-6.24,6.38-.22,0-.46-.07-.63-.22-.27-.22-.39-.56-.31-.89,.27-1.4,3.05-3.43,7.18-5.27Z"/></g></g></g></g></svg>