<?xml version="1.0" encoding="UTF-8"?><svg id="Capa_2" xmlns="http://www.w3.org/2000/svg" viewBox="0 0 58.05 56.59"><defs><style>.cls-1{fill:#fff;}.cls-2{fill:#f4142a;}</style></defs><g id="Capa_1-2"><g><g id="Surfaces"><g id="Drawing_Surface"><g id="Outline_no_shadow"><rect class="cls-2" width="58.05" height="56.59" rx="10.28" ry="10.28"/></g></g></g><g><path class="cls-1" d="m15,34.88l-1.79,6.45h-5.89l7.68-25.13h7.46l7.79,25.13h-6.12l-1.94-6.45h-7.2Zm6.38-4.25l-1.57-5.33c-.45-1.49-.9-3.36-1.27-4.85h-.07c-.37,1.49-.75,3.39-1.16,4.85l-1.49,5.33h5.56Z"/><path class="cls-1" d="m50.58,14.85v21.03c0,2.05.07,4.21.15,5.44h-5.03l-.26-2.69h-.07c-1.16,2.05-3.36,3.1-5.71,3.1-4.33,0-7.79-3.69-7.79-9.36-.04-6.15,3.8-9.7,8.17-9.7,2.24,0,3.99.78,4.81,2.05h.07v-9.88h5.67Zm-5.67,15.96c0-.3-.04-.71-.07-1.01-.34-1.53-1.57-2.8-3.32-2.8-2.57,0-3.92,2.31-3.92,5.18,0,3.1,1.53,5.03,3.88,5.03,1.64,0,2.95-1.12,3.28-2.72.11-.41.15-.82.15-1.31v-2.39Z"/></g></g></g></svg>