<?xml version="1.0" encoding="UTF-8"?><svg id="Capa_2" xmlns="http://www.w3.org/2000/svg" viewBox="0 0 58.05 56.59"><defs><style>.cls-1{fill:#535b2a;}.cls-2{fill:#e8ff75;}</style></defs><g id="Capa_1-2"><g><g id="Surfaces"><g id="Drawing_Surface"><g id="Outline_no_shadow"><rect class="cls-1" width="58.05" height="56.59" rx="10.28" ry="10.28"/></g></g></g><g><path class="cls-2" d="m12.65,15.97c1.49-.3,4.51-.52,7.35-.52,3.47,0,5.59.33,7.42,1.42,1.75.93,3.02,2.65,3.02,4.92s-1.31,4.33-4.14,5.37v.07c2.87.78,5,2.95,5,6.19,0,2.27-1.04,4.07-2.61,5.33-1.83,1.45-4.89,2.27-9.88,2.27-2.8,0-4.89-.19-6.15-.37V15.97Zm5.63,9.62h1.86c2.98,0,4.59-1.23,4.59-3.1s-1.45-2.91-4.03-2.91c-1.23,0-1.94.07-2.42.15v5.86Zm0,11.15c.56.07,1.23.07,2.2.07,2.57,0,4.85-.97,4.85-3.62s-2.27-3.54-5.11-3.54h-1.94v7.09Z"/><path class="cls-2" d="m41.33,17.31v5.22h4.06v4.18h-4.06v6.6c0,2.2.52,3.21,2.24,3.21.71,0,1.27-.08,1.68-.15l.04,4.29c-.75.3-2.09.49-3.69.49-1.83,0-3.36-.63-4.25-1.57-1.04-1.08-1.57-2.83-1.57-5.41v-7.46h-2.42v-4.18h2.42v-3.95l5.56-1.27Z"/></g></g></g></svg>