<?xml version="1.0" encoding="UTF-8"?><svg id="Capa_2" xmlns="http://www.w3.org/2000/svg" viewBox="0 0 58.05 56.59"><defs><style>.cls-1{fill:#9914ef;}</style></defs><g id="Capa_1-2"><g><g id="Surfaces"><g id="UI_UX_Surface"><g id="Outline_no_shadow"><rect class="cls-1" width="58.05" height="56.59" rx="10.28" ry="10.28"/></g></g></g><g><path d="m36.59,48.59h-15.13c-3.23,0-5.85-2.5-5.85-5.57v-15.68c0-2.12,1.79-3.85,3.99-3.85h18.86c2.2,0,3.99,1.73,3.99,3.85v15.68c0,3.07-2.63,5.57-5.86,5.57Zm-16.73-20.84v15.27c0,.72.72,1.31,1.6,1.31h15.13c.88,0,1.6-.59,1.6-1.31v-15.27h-18.34Z"/><path d="m42.44,33.97h-4.25v-6.45c0-1.02-.28-2.02-.82-2.91l-7.01-11.61c-.41-.68-1.07-.75-1.34-.75h0c-.27,0-.93.07-1.34.75l-7.01,11.61c-.53.89-.82,1.89-.82,2.91v6.45h-4.25v-6.45c0-1.79.49-3.56,1.43-5.11l7.01-11.61c1.06-1.76,2.92-2.81,4.98-2.81h0c2.05,0,3.92,1.05,4.98,2.81l7.01,11.61c.94,1.55,1.43,3.32,1.43,5.11v6.45Z"/></g></g></g></svg>