<?xml version="1.0" encoding="UTF-8"?><svg xmlns="http://www.w3.org/2000/svg" xmlns:xlink="http://www.w3.org/1999/xlink" viewBox="0 0 55.87 55.87"><defs><style>.cls-1{fill:url(#radial-gradient-6);}.cls-1,.cls-2,.cls-3,.cls-4,.cls-5,.cls-6,.cls-7{mix-blend-mode:multiply;}.cls-2{fill:url(#radial-gradient-2);}.cls-8{mask:url(#mask-2);}.cls-9{isolation:isolate;}.cls-3{fill:url(#radial-gradient-4);}.cls-10{mask:url(#mask-3);}.cls-4{fill:url(#radial-gradient-5);}.cls-5{fill:url(#radial-gradient);}.cls-11{mask:url(#mask-5);}.cls-12{opacity:.4;}.cls-13{fill:#4285f4;}.cls-14{filter:url(#luminosity-noclip-4);}.cls-15{filter:url(#luminosity-noclip-6);}.cls-16{mask:url(#mask-4);}.cls-17{fill:#ffcd40;}.cls-6{opacity:.04;}.cls-18{fill:#db4437;}.cls-19{filter:url(#luminosity-noclip-2);}.cls-20{mask:url(#mask-1);}.cls-21{mask:url(#mask);}.cls-22{fill:#f1f1f1;}.cls-7{fill:url(#radial-gradient-3);}.cls-23{fill:#0f9d58;}</style><filter id="luminosity-noclip-2" x="3.73" y="13.99" width="17.7" height="20.93" color-interpolation-filters="sRGB" filterUnits="userSpaceOnUse"><feFlood flood-color="#fff" result="bg"/><feBlend in="SourceGraphic" in2="bg"/></filter><filter id="luminosity-noclip-3" x="8646.19" y="-6950.48" width="-32766" height="32766" color-interpolation-filters="sRGB" filterUnits="userSpaceOnUse"><feFlood flood-color="#fff" result="bg"/><feBlend in="SourceGraphic" in2="bg"/></filter><mask id="mask-1" x="8646.19" y="-6950.48" width="-32766" height="32766" maskUnits="userSpaceOnUse"/><radialGradient id="radial-gradient" cx="3.7" cy="13.96" fx="3.7" fy="13.96" r="24.38" gradientUnits="userSpaceOnUse"><stop offset="0" stop-color="#292929"/><stop offset=".3" stop-color="#181818"/><stop offset=".68" stop-color="#0a0a0a"/><stop offset="1" stop-color="#050505"/></radialGradient><mask id="mask" x="3.73" y="13.99" width="17.7" height="20.93" maskUnits="userSpaceOnUse"><g class="cls-19"><g class="cls-20"><polygon class="cls-5" points="3.73 13.99 21.43 31.69 15.84 34.92 3.73 13.99"/></g></g></mask><radialGradient id="radial-gradient-2" cx="3.7" cy="13.96" fx="3.7" fy="13.96" r="24.38" gradientUnits="userSpaceOnUse"><stop offset="0" stop-color="#000"/><stop offset="1" stop-color="#000"/></radialGradient><filter id="luminosity-noclip-4" x="27.96" y="31.69" width="12.07" height="24.18" color-interpolation-filters="sRGB" filterUnits="userSpaceOnUse"><feFlood flood-color="#fff" result="bg"/><feBlend in="SourceGraphic" in2="bg"/></filter><filter id="luminosity-noclip-5" x="8646.19" y="-6950.48" width="-32766" height="32766" color-interpolation-filters="sRGB" filterUnits="userSpaceOnUse"><feFlood flood-color="#fff" result="bg"/><feBlend in="SourceGraphic" in2="bg"/></filter><mask id="mask-3" x="8646.19" y="-6950.48" width="-32766" height="32766" maskUnits="userSpaceOnUse"/><radialGradient id="radial-gradient-3" cx="27.91" cy="27.83" fx="27.91" fy="27.83" r="27.87" xlink:href="#radial-gradient"/><mask id="mask-2" x="27.96" y="31.69" width="12.07" height="24.18" maskUnits="userSpaceOnUse"><g class="cls-14"><g class="cls-10"><polygon class="cls-7" points="27.96 55.87 34.44 31.69 40.03 34.92 27.96 55.87"/></g></g></mask><radialGradient id="radial-gradient-4" cx="27.91" cy="27.83" fx="27.91" fy="27.83" r="27.87" xlink:href="#radial-gradient-2"/><filter id="luminosity-noclip-6" x="27.94" y="13.94" width="24.18" height="6.48" color-interpolation-filters="sRGB" filterUnits="userSpaceOnUse"><feFlood flood-color="#fff" result="bg"/><feBlend in="SourceGraphic" in2="bg"/></filter><filter id="luminosity-noclip-7" x="8646.19" y="-6950.48" width="-32766" height="32766" color-interpolation-filters="sRGB" filterUnits="userSpaceOnUse"><feFlood flood-color="#fff" result="bg"/><feBlend in="SourceGraphic" in2="bg"/></filter><mask id="mask-5" x="8646.19" y="-6950.48" width="-32766" height="32766" maskUnits="userSpaceOnUse"/><radialGradient id="radial-gradient-5" cx="27.73" cy="13.91" fx="27.73" fy="13.91" r="24.62" xlink:href="#radial-gradient"/><mask id="mask-4" x="27.94" y="13.94" width="24.18" height="6.48" maskUnits="userSpaceOnUse"><g class="cls-15"><g class="cls-11"><polygon class="cls-4" points="52.12 13.94 27.94 20.42 27.94 13.96 52.12 13.94"/></g></g></mask><radialGradient id="radial-gradient-6" cx="27.73" cy="13.91" fx="27.73" fy="13.91" r="24.62" gradientUnits="userSpaceOnUse"><stop offset="0" stop-color="#3e2723"/><stop offset="1" stop-color="#3e2723"/></radialGradient></defs><g class="cls-9"><g id="Capa_2"><g id="Capa_1-2"><g><path class="cls-18" d="M27.9,27.93h0s0-13.96,0-13.96h24.2C47.27,4.63,38.27,0,27.94,0S8.59,5.63,3.76,13.99l12.06,20.93,12.07-6.98Z"/><path class="cls-17" d="M27.9,13.97v13.96h0s12.11,6.98,12.11,6.98l-12.08,20.95h0c15.43,0,27.94-12.5,27.94-27.93,0-5.09-1.38-9.37-3.76-13.96H27.9Z"/><path class="cls-23" d="M27.9,27.93h0s0,0,0,0l-12.07,6.98L3.75,13.99C1.38,18.09,0,22.85,0,27.93c0,15.43,12.51,27.93,27.93,27.93l12.08-20.95-12.11-6.98Z"/><g class="cls-12"><g class="cls-21"><polygon class="cls-2" points="3.73 13.99 21.43 31.69 15.84 34.92 3.73 13.99"/></g></g><g class="cls-12"><g class="cls-8"><polygon class="cls-3" points="27.96 55.87 34.44 31.69 40.03 34.92 27.96 55.87"/></g></g><g class="cls-12"><g class="cls-16"><polygon class="cls-1" points="52.12 13.94 27.94 20.42 27.94 13.96 52.12 13.94"/></g></g><circle class="cls-22" cx="27.94" cy="27.93" r="13.97"/><circle class="cls-13" cx="27.94" cy="27.93" r="10.24"/><g class="cls-6"><path d="M27.94,.08c3.76,0,7.41,.74,10.84,2.19,3.32,1.4,6.3,3.41,8.85,5.97s4.57,5.54,5.97,8.85c1.45,3.43,2.19,7.08,2.19,10.84s-.74,7.41-2.19,10.84c-1.4,3.32-3.41,6.3-5.97,8.85-2.56,2.56-5.54,4.57-8.85,5.97-3.43,1.45-7.08,2.19-10.84,2.19s-7.41-.74-10.84-2.19c-3.32-1.4-6.3-3.41-8.85-5.97-2.56-2.56-4.57-5.54-5.97-8.85C.82,35.34,.08,31.69,.08,27.93s.74-7.41,2.19-10.84c1.4-3.32,3.41-6.3,5.97-8.85S13.78,3.67,17.09,2.27C20.53,.81,24.18,.08,27.94,.08m0-.08C12.51,0,0,12.51,0,27.93s12.51,27.93,27.93,27.93,27.93-12.51,27.93-27.93S43.36,0,27.94,0h0Z"/></g></g></g></g></g></svg>