<?xml version="1.0" encoding="UTF-8"?><svg id="Capa_2" xmlns="http://www.w3.org/2000/svg" viewBox="0 0 58.05 56.59"><defs><style>.cls-1{fill:#ff4500;}</style></defs><g id="Capa_1-2"><g><g id="Surfaces"><g id="Drawing_Surface"><g id="Outline_no_shadow"><rect class="cls-1" width="58.05" height="56.59" rx="10.28" ry="10.28"/></g></g></g><g><path d="m31.96,40.61c-1.08.54-3.52,1.12-6.69,1.12-9.01,0-13.65-5.61-13.65-13.03,0-8.89,6.34-13.84,14.23-13.84,3.05,0,5.37.62,6.42,1.16l-1.2,4.68c-1.2-.5-2.86-.97-4.95-.97-4.68,0-8.31,2.82-8.31,8.62,0,5.22,3.09,8.51,8.35,8.51,1.78,0,3.75-.39,4.91-.85l.89,4.6Z"/><path d="m42.21,17.03v5.41h4.21v4.33h-4.21v6.84c0,2.28.54,3.33,2.32,3.33.73,0,1.31-.08,1.74-.15l.04,4.45c-.77.31-2.17.5-3.83.5-1.9,0-3.48-.66-4.41-1.62-1.08-1.12-1.62-2.94-1.62-5.61v-7.73h-2.51v-4.33h2.51v-4.1l5.76-1.31Z"/></g></g></g></svg>