<?xml version="1.0" encoding="UTF-8"?><svg id="Capa_2" xmlns="http://www.w3.org/2000/svg" viewBox="0 0 58.05 56.59"><defs><style>.cls-1{fill:#04b2d9;}.cls-2{fill:#024b5b;}</style></defs><g id="Capa_1-2"><g><g id="Surfaces"><g id="Drawing_Surface"><g id="Outline_no_shadow"><rect class="cls-2" width="58.05" height="56.59" rx="10.28" ry="10.28"/></g></g></g><g><path class="cls-1" d="m7.49,16.64c2.08-.33,4.8-.52,7.66-.52,4.76,0,7.85.86,10.26,2.68,2.6,1.93,4.24,5.02,4.24,9.45,0,4.8-1.75,8.11-4.17,10.15-2.64,2.19-6.66,3.23-11.57,3.23-2.94,0-5.02-.19-6.43-.37v-24.62Zm5.69,20.46c.48.11,1.26.11,1.97.11,5.13.04,8.48-2.79,8.48-8.78.04-5.21-3.01-7.96-7.88-7.96-1.26,0-2.08.11-2.57.22v16.4Z"/><path class="cls-1" d="m33.3,14.96h5.65v10.38h.07c.6-.78,1.34-1.38,2.23-1.86.82-.45,1.9-.71,2.94-.71,3.61,0,6.36,2.49,6.36,7.96v10.64h-5.65v-10c0-2.38-.82-4.02-2.94-4.02-1.49,0-2.42.97-2.83,1.97-.15.37-.19.85-.19,1.26v10.79h-5.65V14.96Z"/></g></g></g></svg>