<?xml version="1.0" encoding="UTF-8"?><svg id="Capa_2" xmlns="http://www.w3.org/2000/svg" viewBox="0 0 58.05 56.59"><defs><style>.cls-1{fill:#e2e2e2;}.cls-2{fill:#211e1e;}</style></defs><g id="Capa_1-2"><g><g id="Surfaces"><g id="Drawing_Surface"><g id="Outline_no_shadow"><rect class="cls-1" width="58.05" height="56.59" rx="10.28" ry="10.28"/></g></g></g><g><path class="cls-2" d="m27.32,30.18h-9.42v6.08h10.52v4.75H12.08V15.4h15.81v4.75h-9.99v5.32h9.42v4.71Z"/><path class="cls-2" d="m31.37,26.03c0-1.86-.06-3.45-.12-4.76h3.83l.2,1.97h.06c1.04-1.51,2.67-2.29,4.73-2.29,3.1,0,5.89,2.7,5.89,7.22,0,5.16-3.28,7.6-6.44,7.6-1.71,0-3.05-.7-3.68-1.62h-.06v7.05h-4.41v-15.17Zm4.41,3.34c0,.35.03.67.09.93.29,1.19,1.31,2.09,2.58,2.09,1.91,0,3.05-1.59,3.05-4,0-2.26-1.02-3.97-2.99-3.97-1.25,0-2.35.93-2.64,2.23-.06.23-.09.52-.09.78v1.94Z"/></g></g></g></svg>