<?xml version="1.0" encoding="UTF-8"?><svg id="Capa_2" xmlns="http://www.w3.org/2000/svg" viewBox="0 0 92.34 83.4"><defs><style>.cls-1{fill:#a5d3f7;}.cls-2{fill:#7bc5f9;}</style></defs><g id="Capa_1-2"><g><path class="cls-2" d="M13.45,0h12.33c4.12,0,8.01,1.89,10.56,5.12h0c.83,1.05,2.09,1.66,3.42,1.66h39.14c7.43,0,13.45,6.02,13.45,13.45v20.38H0V13.45C0,6.02,6.02,0,13.45,0Z"/><rect class="cls-1" y="18.41" width="92.34" height="65" rx="17.39" ry="17.39"/><path class="cls-2" d="M62.61,37.08c-3.86-3.86-9.76-4.44-14.23-1.74-1.35,.81-3.08,.81-4.43,0-4.47-2.7-10.37-2.12-14.23,1.74-4.54,4.54-4.54,11.9,0,16.44h0s13.34,13.34,13.34,13.34c1.72,1.72,4.5,1.72,6.22,0l13.34-13.33h0c4.54-4.54,4.54-11.9,0-16.44Z"/></g></g></svg>