<?xml version="1.0" encoding="UTF-8"?><svg id="Capa_2" xmlns="http://www.w3.org/2000/svg" viewBox="0 0 92.34 83.4"><defs><style>.cls-1{fill:#f7dada;}.cls-2{fill:#f9b0b2;}</style></defs><g id="Capa_1-2"><g><path class="cls-2" d="M13.45,0h12.33c4.12,0,8.01,1.89,10.56,5.12h0c.83,1.05,2.09,1.66,3.42,1.66h39.14c7.43,0,13.45,6.02,13.45,13.45v20.38H0V13.45C0,6.02,6.02,0,13.45,0Z"/><rect class="cls-1" x="0" y="18.41" width="92.34" height="65" rx="17.39" ry="17.39"/><path class="cls-2" d="M44.44,64.83l-5.25,2.76c-2.72,1.43-5.91-.88-5.39-3.91l1-5.85c.21-1.2-.19-2.43-1.07-3.29l-4.25-4.14c-2.2-2.15-.99-5.89,2.06-6.33l5.87-.85c1.21-.18,2.25-.94,2.79-2.03l2.63-5.32c1.36-2.76,5.3-2.76,6.66,0l2.63,5.32c.54,1.1,1.59,1.85,2.79,2.03l5.87,.85c3.04,.44,4.26,4.18,2.06,6.33l-4.25,4.14c-.87,.85-1.27,2.08-1.07,3.29l1,5.85c.52,3.03-2.66,5.34-5.39,3.91l-5.25-2.76c-1.08-.57-2.37-.57-3.45,0Z"/></g></g></svg>