<?xml version="1.0" encoding="UTF-8"?><svg id="Capa_2" xmlns="http://www.w3.org/2000/svg" viewBox="0 0 58.05 56.59"><defs><style>.cls-1{fill:#f24e1e;}.cls-2{fill:#a259ff;}.cls-3{fill:#ff7262;}.cls-4{fill:#1abcfe;}.cls-5{fill:#141414;}.cls-6{fill:#0acf83;}</style></defs><g id="Capa_1-2"><g><g id="Surfaces"><g id="Drawing_Surface"><g id="Outline_no_shadow"><rect class="cls-5" y="0" width="58.05" height="56.59" rx="10.28" ry="10.28"/></g></g></g><g><path id="path0_fill" class="cls-6" d="M22.25,48.63c3.74,0,6.78-3.04,6.78-6.78v-6.78h-6.78c-3.74,0-6.78,3.04-6.78,6.78s3.04,6.78,6.78,6.78Z"/><path id="path1_fill" class="cls-2" d="M15.47,28.3c0-3.74,3.04-6.78,6.78-6.78h6.78v13.55h-6.78c-3.74,0-6.78-3.04-6.78-6.78Z"/><path id="path1_fill-2" class="cls-1" d="M15.47,14.74c0-3.74,3.04-6.78,6.78-6.78h6.78v13.55h-6.78c-3.74,0-6.78-3.04-6.78-6.78Z"/><path id="path2_fill" class="cls-3" d="M29.02,7.97h6.78c3.74,0,6.78,3.04,6.78,6.78s-3.04,6.78-6.78,6.78h-6.78V7.97Z"/><path id="path3_fill" class="cls-4" d="M42.58,28.3c0,3.74-3.04,6.78-6.78,6.78s-6.78-3.04-6.78-6.78,3.04-6.78,6.78-6.78,6.78,3.04,6.78,6.78Z"/></g></g></g></svg>