<?xml version="1.0" encoding="UTF-8"?><svg id="Capa_2" xmlns="http://www.w3.org/2000/svg" viewBox="0 0 58.05 56.59"><defs><style>.cls-1{fill:#99f;}.cls-2{fill:#00005b;}</style></defs><g id="Capa_1-2"><g><g id="Surfaces"><g id="UI_UX_Surface"><g id="Outline_no_shadow"><rect class="cls-2" y="0" width="58.05" height="56.59" rx="10.28" ry="10.28"/></g></g></g><path class="cls-1" d="m20.93,13.81l-.79,2.36h-5.66c-2.67,0-4.85,2.17-4.85,4.85v19.39c0,2.67,2.17,4.85,4.85,4.85h29.09c2.67,0,4.85-2.17,4.85-4.85v-19.39c0-2.67-2.17-4.85-4.85-4.85h-5.66l-.79-2.36c-.49-1.48-1.88-2.48-3.45-2.48h-9.3c-1.57,0-2.95,1-3.45,2.48Zm8.1,24.18c-4.01,0-7.27-3.26-7.27-7.27s3.26-7.27,7.27-7.27,7.27,3.26,7.27,7.27-3.26,7.27-7.27,7.27Z"/></g></g></svg>