<?xml version="1.0" encoding="UTF-8"?><svg id="Capa_2" xmlns="http://www.w3.org/2000/svg" viewBox="0 0 58.05 56.59"><defs><style>.cls-1{fill:#001e36;}.cls-2{fill:#31a8ff;}</style></defs><g id="Capa_1-2"><g><g id="Surfaces"><g id="UI_UX_Surface"><g id="Outline_no_shadow"><rect class="cls-1" width="58.05" height="56.59" rx="10.28" ry="10.28"/></g></g></g><path class="cls-2" d="m46.81,30.49c1.18,0,2.23-.97,2.23-2.23.07-.63-.21-1.18-.76-1.67l-3.67-3.23v-8.41c0-1.23-.99-2.23-2.23-2.23h-2.23c-1.23,0-2.23.99-2.23,2.23v2.55l-7.41-6.52c-.42-.35-.97-.49-1.46-.49s-1.04.07-1.53.56l-17.84,15.54c-.49.49-.7,1.04-.7,1.67,0,1.25.97,2.23,2.23,2.23h2.23v4.85c0,.06,0,.13,0,.19v7.78c0,1.54,1.24,2.78,2.78,2.78h1.11c.08,0,.17,0,.25-.01.1,0,.21.01.31.01h3.89c1.54,0,2.78-1.24,2.78-2.78v-6.12c0-1.23.99-2.23,2.23-2.23h4.45c1.23,0,2.23.99,2.23,2.23v6.12c0,1.54,1.24,2.78,2.78,2.78h3.93c.1,0,.19,0,.29,0,.08,0,.15,0,.23,0h1.11c1.54,0,2.78-1.24,2.78-2.78v-1.13c.02-.18.03-.37.03-.56l-.05-11.14h2.23Z"/></g></g></svg>