<?xml version="1.0" encoding="UTF-8"?><svg id="Capa_2" xmlns="http://www.w3.org/2000/svg" viewBox="0 0 58.05 56.59"><defs><style>.cls-1{fill:#ff9a00;}.cls-2{fill:#300;}</style></defs><g id="Capa_1-2"><g id="Layer_2"><g id="Surfaces"><g id="Drawing_Surface"><g id="Outline_no_shadow"><rect class="cls-2" width="58.05" height="56.59" rx="10.28" ry="10.28"/></g></g></g><g id="Outlined_Mnemonics_Logos"><g id="Ai"><path class="cls-1" d="M28.13,33.96h-8.99l-1.83,5.69c-.05,.21-.25,.36-.47,.35h-4.56c-.26,0-.35-.14-.27-.43l7.79-22.43c.08-.23,.16-.5,.23-.8,.1-.52,.15-1.05,.16-1.58-.02-.13,.07-.25,.2-.27,.02,0,.05,0,.07,0h6.19c.18,0,.29,.06,.31,.19l8.84,24.92c.08,.26,0,.39-.23,.39h-5.06c-.18,.02-.35-.1-.39-.27l-1.99-5.76Zm-7.59-4.91h6.15c-.16-.52-.34-1.1-.55-1.75-.21-.65-.43-1.34-.66-2.08-.23-.74-.47-1.48-.7-2.22-.23-.74-.45-1.45-.64-2.14-.19-.69-.37-1.32-.53-1.89h-.04c-.22,1.05-.49,2.09-.82,3.12-.36,1.17-.73,2.36-1.11,3.58-.38,1.22-.75,2.35-1.11,3.39h0Z"/><path class="cls-1" d="M41.06,18.62c-.8,.03-1.58-.28-2.14-.86-.56-.6-.85-1.4-.82-2.22-.03-.81,.29-1.6,.88-2.16,.58-.56,1.36-.86,2.16-.84,.93,0,1.67,.28,2.2,.84,.54,.59,.83,1.36,.8,2.16,.03,.82-.27,1.62-.84,2.22-.59,.59-1.41,.9-2.24,.86Zm-2.69,20.99V21c0-.23,.1-.35,.31-.35h4.79c.21,0,.31,.12,.31,.35v18.61c0,.26-.1,.39-.31,.39h-4.75c-.23,0-.35-.13-.35-.39Z"/></g></g></g></g></svg>