<?xml version="1.0" encoding="UTF-8"?><svg id="Capa_2" xmlns="http://www.w3.org/2000/svg" viewBox="0 0 58.05 56.59"><defs><style>.cls-1{fill:#49021f;}.cls-2{fill:#f36;}</style></defs><g id="Capa_1-2"><g><g id="Surfaces"><g id="Publishing_Surface"><g id="Outline_no_shadow"><rect class="cls-1" y="0" width="58.05" height="56.59" rx="10.28" ry="10.28"/></g></g></g><g id="Outlined_Mnemonics_Logos"><g id="Id"><path class="cls-2" d="M21.08,14.81v24.8c0,.26-.12,.39-.35,.39h-4.71c-.21,0-.31-.13-.31-.39V14.81c0-.21,.12-.31,.35-.31h4.71c.15-.02,.29,.08,.31,.23,0,.03,0,.05,0,.08Z"/><path class="cls-2" d="M35.02,40.39c-1.79,.03-3.57-.35-5.2-1.09-1.52-.7-2.79-1.85-3.64-3.29-.88-1.47-1.32-3.3-1.32-5.51-.01-1.79,.44-3.55,1.32-5.1,.91-1.58,2.24-2.88,3.85-3.74,1.69-.93,3.72-1.4,6.11-1.4,.13,0,.3,0,.51,.02,.21,.01,.45,.03,.74,.06v-7.67c0-.18,.08-.27,.23-.27h4.91c.11-.02,.22,.06,.23,.18,0,.02,0,.04,0,.06v23.01c0,.44,.02,.92,.06,1.44,.04,.52,.07,.99,.1,1.4,0,.17-.08,.32-.23,.39-1.27,.53-2.58,.92-3.93,1.17-1.23,.23-2.48,.34-3.74,.35Zm2.38-4.83v-10.63c-.21-.06-.43-.1-.64-.12-.27-.03-.53-.04-.8-.04-.94,0-1.88,.2-2.73,.62-.82,.41-1.53,1.03-2.04,1.79-.53,.78-.8,1.8-.8,3.08-.02,.85,.12,1.69,.41,2.49,.24,.64,.61,1.23,1.09,1.71,.46,.45,1.02,.78,1.64,.97,.65,.21,1.32,.31,2.01,.31,.36,0,.7-.01,1.01-.04,.29-.02,.58-.07,.86-.16Z"/></g></g></g></g></svg>