<?xml version="1.0" encoding="utf-8"?>
<!-- Generator: Adobe Illustrator 27.0.1, SVG Export Plug-In . SVG Version: 6.00 Build 0)  -->
<svg version="1.1" id="Capa_2_00000175300426421581600250000005702019696343580032_"
	 xmlns="http://www.w3.org/2000/svg" xmlns:xlink="http://www.w3.org/1999/xlink" x="0px" y="0px" viewBox="0 0 58 71.1"
	 style="enable-background:new 0 0 58 71.1;" xml:space="preserve">
<style type="text/css">
	.st0{fill:#001E36;}
	.st1{fill:#31A8FF;}
	.st2{fill:#4F4F4F;}
</style>
<g>
	<g id="Capa_1-2">
		<g id="Layer_2">
			<g id="Surfaces">
				<g id="Photo_Surface">
					<g id="Outline_no_shadow">
						<path class="st0" d="M10.3,0h37.5C53.4,0,58,4.6,58,10.3v36c0,5.7-4.6,10.3-10.3,10.3H10.3C4.6,56.6,0,52,0,46.3v-36
							C0,4.6,4.6,0,10.3,0z"/>
					</g>
				</g>
			</g>
			<g id="Outlined_Mnemonics_Logos">
				<g id="Lr">
					<path class="st1" d="M30.5,40H15.1c-0.3,0-0.4-0.1-0.4-0.4V14.8c0-0.2,0.1-0.3,0.3-0.4c0,0,0.1,0,0.1,0h4.8
						c0.1,0,0.2,0.1,0.3,0.2c0,0,0,0.1,0,0.1v20.3h11.2c0.2,0,0.3,0.1,0.3,0.3l-0.7,4.2c0,0.1-0.1,0.2-0.2,0.3
						C30.6,40,30.6,40,30.5,40L30.5,40z"/>
					<path class="st1" d="M34.3,20.6h4.2c0.2,0,0.4,0.2,0.5,0.4c0.1,0.2,0.2,0.4,0.2,0.5c0,0.2,0.1,0.5,0.1,0.8c0,0.3,0,0.6,0,0.9
						c0.7-0.9,1.6-1.5,2.6-2.1c1.1-0.6,2.3-0.9,3.6-0.9c0.2,0,0.3,0.1,0.3,0.3c0,0,0,0.1,0,0.1v4.7c0,0.2-0.1,0.3-0.4,0.3
						c-1.6-0.1-3.1,0.2-4.6,0.8c-0.5,0.2-0.9,0.5-1.3,0.9v12.3c0,0.2-0.1,0.3-0.3,0.3h-4.7c-0.2,0-0.4-0.1-0.4-0.3c0,0,0-0.1,0-0.1
						V26.2c0-0.6,0-1.2,0-1.8c0-0.6,0-1.3-0.1-1.9c0-0.5-0.1-1.1-0.2-1.6c0-0.1,0-0.2,0.2-0.3C34.3,20.7,34.3,20.7,34.3,20.6
						L34.3,20.6L34.3,20.6z"/>
				</g>
			</g>
		</g>
	</g>
	<circle class="st2" cx="29" cy="64.1" r="3.5"/>
</g>
</svg>
