<?xml version="1.0" encoding="UTF-8"?><svg id="Capa_2" xmlns="http://www.w3.org/2000/svg" viewBox="0 0 58.05 56.59"><defs><style>.cls-1{fill:#001e36;}.cls-2{fill:#31a8ff;}</style></defs><g id="Capa_1-2"><g id="Layer_2"><g id="Surfaces"><g id="Photo_Surface"><g id="Outline_no_shadow"><rect class="cls-1" x="0" width="58.05" height="56.59" rx="10.28" ry="10.28"/></g></g></g><g id="Outlined_Mnemonics_Logos"><g id="Lr"><path class="cls-2" d="M30.48,40H15.14c-.26,0-.39-.14-.39-.43V14.84c-.02-.17,.09-.33,.26-.35,.03,0,.06,0,.09,0h4.75c.13-.02,.25,.07,.27,.21,0,.02,0,.05,0,.07v20.33h11.18c.23,0,.32,.12,.27,.35l-.7,4.21c0,.12-.06,.22-.16,.29-.07,.04-.15,.06-.23,.06Z"/><path class="cls-2" d="M34.34,20.65h4.24c.24,0,.44,.16,.51,.39,.09,.17,.16,.35,.19,.55,.05,.25,.09,.5,.12,.76,.03,.27,.04,.56,.04,.88,.73-.85,1.61-1.55,2.59-2.08,1.11-.6,2.35-.9,3.6-.88,.17-.02,.33,.09,.35,.26,0,.03,0,.06,0,.09v4.71c0,.18-.13,.27-.39,.27-1.57-.1-3.14,.18-4.58,.82-.49,.21-.93,.52-1.3,.9v12.34c0,.23-.1,.35-.31,.35h-4.71c-.19,.03-.36-.1-.39-.29,0-.03,0-.07,0-.1v-13.39c0-.57,0-1.17-.02-1.81-.01-.64-.03-1.27-.06-1.89-.02-.53-.07-1.07-.16-1.6-.03-.12,.04-.24,.16-.27,.04,0,.08,0,.11,0h0Z"/></g></g></g></g></svg>