<?xml version="1.0" encoding="UTF-8"?><svg id="Capa_2" xmlns="http://www.w3.org/2000/svg" viewBox="0 0 58.05 56.59"><defs><style>.cls-1{fill:#49021f;}.cls-2{fill:#f36;}</style></defs><g id="Capa_1-2"><g><g id="Surfaces"><g id="UI_UX_Surface"><g id="Outline_no_shadow"><rect class="cls-1" width="58.05" height="56.59" rx="10.28" ry="10.28"/></g></g></g><path class="cls-2" d="m12.35,12.9c-2.12,0-3.85,1.72-3.85,3.85,0,1.21.57,2.35,1.54,3.08l17.44,13.08c.91.68,2.16.68,3.08,0l17.44-13.08c.97-.73,1.54-1.87,1.54-3.08,0-2.12-1.72-3.85-3.85-3.85,0,0-33.35,0-33.35,0Zm-3.85,8.98v16.67c0,2.83,2.3,5.13,5.13,5.13h30.78c2.83,0,5.13-2.3,5.13-5.13v-16.67l-17.44,13.08c-1.83,1.37-4.33,1.37-6.16,0l-17.44-13.08Z"/></g></g></svg>