<?xml version="1.0" encoding="UTF-8"?><svg id="Capa_2" xmlns="http://www.w3.org/2000/svg" viewBox="0 0 58.05 56.59"><defs><style>.cls-1{fill:#fff;}.cls-2{fill:#515051;}</style></defs><g id="Capa_1-2"><g><g id="Surfaces"><g id="UI_UX_Surface"><g id="Outline_no_shadow"><rect class="cls-2" width="58.05" height="56.59" rx="10.28" ry="10.28"/></g></g></g><path class="cls-1" d="m42.73,13.86H15.32c-2.31,0-4.18,1.88-4.18,4.18v20.51c0,2.31,1.88,4.18,4.18,4.18h27.41c2.31,0,4.18-1.88,4.18-4.18v-20.51c0-2.31-1.88-4.18-4.18-4.18Zm-2.78,4.09l-10.9,7.82-10.58-7.82h21.48Zm2.78,20.7H15.32c-.05,0-.1-.04-.1-.1v-17.91l13.78,10.19,13.82-9.91v17.63c0,.05-.04.1-.1.1Z"/></g></g></svg>