<?xml version="1.0" encoding="UTF-8"?><svg id="Capa_2" xmlns="http://www.w3.org/2000/svg" viewBox="0 0 58.05 56.59"><defs><style>.cls-1{fill:#fff;}.cls-2{fill:#000b1d;}</style></defs><g id="Capa_1-2"><g><g id="Surfaces"><g id="UI_UX_Surface"><g id="Outline_no_shadow"><rect class="cls-2" y="0" width="58.05" height="56.59" rx="10.28" ry="10.28"/></g></g></g><g><path class="cls-1" d="m38.75,50.87h-19.45c-7.08,0-12.85-5.76-12.85-12.85v-19.45c0-7.08,5.76-12.85,12.85-12.85h19.45c7.08,0,12.85,5.76,12.85,12.85v19.45c0,7.08-5.76,12.85-12.85,12.85ZM19.3,9.6c-4.95,0-8.98,4.03-8.98,8.98v19.45c0,4.95,4.03,8.98,8.98,8.98h19.45c4.95,0,8.98-4.03,8.98-8.98v-19.45c0-4.95-4.03-8.98-8.98-8.98h-19.45Z"/><path class="cls-1" d="m29.02,39.86c-6.37,0-11.56-5.18-11.56-11.56s5.19-11.56,11.56-11.56,11.56,5.19,11.56,11.56-5.19,11.56-11.56,11.56Zm0-19.25c-4.24,0-7.69,3.45-7.69,7.69s3.45,7.69,7.69,7.69,7.69-3.45,7.69-7.69-3.45-7.69-7.69-7.69Z"/><path class="cls-1" d="m43.85,16.08c0,1.53-1.24,2.78-2.78,2.78s-2.78-1.24-2.78-2.78,1.24-2.78,2.78-2.78,2.78,1.24,2.78,2.78Z"/></g></g></g></svg>