<?xml version="1.0" encoding="UTF-8"?><svg id="Capa_2" xmlns="http://www.w3.org/2000/svg" viewBox="0 0 58.05 56.59"><defs><style>.cls-1{fill:#f8f9f7;}</style></defs><g id="Capa_1-2"><g><g id="Surfaces"><g id="Drawing_Surface"><g id="Outline_no_shadow"><rect class="cls-1" width="58.05" height="56.59" rx="10.28" ry="10.28"/></g></g></g><g><path d="m6.95,41.54v-25.13h6.64l5.22,9.21c1.49,2.65,2.98,5.78,4.1,8.61h.11c-.37-3.32-.48-6.71-.48-10.48v-7.35h5.22v25.13h-5.97l-5.37-9.7c-1.49-2.68-3.13-5.93-4.36-8.88l-.11.04c.15,3.32.22,6.86.22,10.96v7.57h-5.22Z"/><path d="m38.27,30.98h.07c.41-.75.86-1.49,1.31-2.2l3.69-5.48h6.82l-6.53,7.38,7.46,10.85h-6.97l-4.4-7.5-1.45,1.79v5.71h-5.67V15.06h5.67v15.92Z"/></g></g></g></svg>