<?xml version="1.0" encoding="UTF-8"?><svg id="Capa_2" xmlns="http://www.w3.org/2000/svg" viewBox="0 0 58.04 56.59"><defs><style>.cls-1{fill:#9914ef;}</style></defs><g id="Capa_1-2"><g><g id="Surfaces"><g id="UI_UX_Surface"><g id="Outline_no_shadow"><path class="cls-1" d="m58.04,10.28v36.03c0,3.32-1.57,6.27-4.01,8.15-1.73,1.33-3.91,2.13-6.26,2.13H10.28c-1.6,0-3.12-.37-4.47-1.02-3.44-1.66-5.81-5.18-5.81-9.26V10.28C0,4.6,4.6,0,10.28,0h37.49c5.67,0,10.27,4.6,10.27,10.28Z"/></g></g></g><g><circle cx="29.37" cy="20.78" r="10.72"/><path d="m54.03,54.46c-1.73,1.33-3.91,2.13-6.26,2.13H10.28c-1.6,0-3.12-.37-4.47-1.02,4.25-10.11,11.23-19.98,16.52-26.69,4.1-5.21,7.19-8.5,7.19-8.5,2.26,2.14,4.72,5.01,7.21,8.2,6.82,8.77,13.81,20.06,17.3,25.88Z"/></g></g></g></svg>