<?xml version="1.0" encoding="UTF-8"?><svg id="Capa_2" xmlns="http://www.w3.org/2000/svg" viewBox="0 0 58.05 56.59"><defs><style>.cls-1{fill:#ad72e9;}.cls-2{fill:#2f145b;}</style></defs><g id="Capa_1-2"><g><g id="Surfaces"><g id="Drawing_Surface"><g id="Outline_no_shadow"><rect class="cls-2" width="58.05" height="56.59" rx="10.28" ry="10.28"/></g></g></g><g><path class="cls-1" d="m15.45,16.74c1.75-.3,4.21-.52,7.68-.52s6,.67,7.68,2.01c1.6,1.27,2.69,3.36,2.69,5.82s-.82,4.55-2.31,5.97c-1.94,1.83-4.81,2.65-8.17,2.65-.75,0-1.42-.04-1.94-.11v8.99h-5.63v-24.8Zm5.63,11.41c.48.11,1.08.15,1.9.15,3.02,0,4.89-1.53,4.89-4.1,0-2.31-1.6-3.69-4.44-3.69-1.16,0-1.94.11-2.35.22v7.42Z"/><path class="cls-1" d="m36.93,15.06h5.67v26.48h-5.67V15.06Z"/></g></g></g></svg>