<?xml version="1.0" encoding="UTF-8"?><svg id="Capa_2" xmlns="http://www.w3.org/2000/svg" viewBox="0 0 58.05 56.59"><defs><style>.cls-1{fill:#99f;}.cls-2{fill:#00005b;}</style></defs><g id="Capa_1-2"><g id="Layer_2"><g id="Surfaces"><g id="Video_Audio_Surface"><g id="Outline_no_shadow"><path class="cls-2" d="M10.28,0H47.77c5.68,0,10.28,4.6,10.28,10.28V46.32c0,5.68-4.6,10.28-10.28,10.28H10.28c-5.68,0-10.28-4.6-10.28-10.28V10.28C0,4.6,4.6,0,10.28,0Z"/></g></g></g><g id="Outlined_Mnemonics_Logos"><g id="Pr"><path class="cls-1" d="M13.79,39.69V14.8c0-.17,.07-.27,.24-.27,.41,0,.8,0,1.35-.02,.58-.02,1.19-.02,1.84-.05,.65-.02,1.35-.02,2.1-.05,.75-.02,1.48-.02,2.2-.02,1.98,0,3.63,.24,4.98,.75,1.21,.41,2.32,1.09,3.24,1.98,.77,.77,1.38,1.72,1.77,2.76,.36,1.02,.56,2.06,.56,3.14,0,2.08-.48,3.8-1.45,5.15s-2.32,2.37-3.89,2.95c-1.64,.6-3.46,.82-5.44,.82-.58,0-.97,0-1.21-.02s-.58-.02-1.04-.02v7.76c.02,.17-.1,.31-.27,.34h-4.69c-.19,0-.29-.1-.29-.31Zm5.27-20.49v8.13c.34,.02,.65,.05,.94,.05h1.28c.94,0,1.89-.15,2.78-.44,.77-.22,1.45-.68,1.98-1.28,.51-.6,.75-1.43,.75-2.49,.02-.75-.17-1.5-.56-2.15-.41-.63-.99-1.11-1.69-1.38-.89-.36-1.86-.51-2.85-.48-.63,0-1.19,0-1.64,.02-.48-.02-.82,0-.99,.02h0Z"/><path class="cls-1" d="M35.46,20.61h4.23c.24,0,.44,.17,.51,.39,.07,.19,.12,.39,.15,.6,.05,.24,.1,.51,.12,.75,.02,.27,.05,.56,.05,.87,.73-.85,1.6-1.55,2.59-2.08,1.11-.63,2.39-.94,3.68-.94,.17-.02,.31,.1,.34,.27v4.81c0,.19-.12,.27-.39,.27-.87-.02-1.77,.05-2.61,.24-.7,.15-1.38,.36-2.03,.65-.46,.22-.89,.51-1.23,.89v12.33c0,.24-.1,.34-.31,.34h-4.76c-.19,.02-.36-.1-.39-.29v-13.5c0-.58,0-1.19-.02-1.81s-.02-1.26-.05-1.89c0-.56-.05-1.09-.1-1.64-.02-.12,.05-.24,.17-.27,0-.02,.05-.02,.07,0h0Z"/></g></g></g></g></svg>