<?xml version="1.0" encoding="UTF-8"?><svg id="Capa_2" xmlns="http://www.w3.org/2000/svg" viewBox="0 0 58.05 56.59"><defs><style>.cls-1{fill:#001e36;}.cls-2{fill:#31a8ff;}</style></defs><g id="Capa_1-2"><g id="Layer_2"><g id="Surfaces"><g id="Photo_Surface"><g id="Outline_no_shadow"><rect class="cls-1" width="58.05" height="56.59" rx="10.28" ry="10.28"/></g></g></g><g id="Outlined_Mnemonics_Logos"><g id="Ps"><path class="cls-2" d="M13.07,39.69V14.81c0-.18,.08-.27,.23-.27,.41,0,.79,0,1.37-.02,.57-.01,1.19-.03,1.85-.04,.66-.01,1.36-.03,2.1-.04,.74-.01,1.47-.02,2.2-.02,1.97,0,3.63,.25,4.98,.74,1.22,.41,2.33,1.09,3.25,1.99,.78,.78,1.39,1.71,1.77,2.75,.36,1,.55,2.07,.55,3.13,0,2.08-.48,3.79-1.44,5.14-.97,1.36-2.33,2.38-3.89,2.94-1.64,.61-3.45,.82-5.45,.82-.57,0-.97,0-1.21-.02-.23-.01-.58-.02-1.05-.02v7.77c.02,.17-.09,.33-.26,.35-.03,0-.06,0-.09,0h-4.64c-.18,0-.27-.1-.27-.31Zm5.26-20.48v8.12c.34,.03,.65,.04,.93,.04h1.28c.95,0,1.88-.15,2.78-.44,.77-.23,1.46-.68,1.99-1.28,.51-.6,.76-1.43,.76-2.49,.02-.75-.18-1.5-.56-2.14-.41-.62-1-1.11-1.69-1.38-.91-.35-1.87-.52-2.84-.49-.62,0-1.17,0-1.65,.02-.48,.01-.81,.03-.99,.06h0Z"/><path class="cls-2" d="M46.43,25.85c-.73-.38-1.51-.65-2.32-.82-.89-.2-1.8-.31-2.71-.31-.49-.01-.98,.05-1.46,.18-.3,.07-.57,.24-.76,.49-.13,.2-.19,.43-.19,.66,0,.23,.09,.45,.23,.62,.23,.27,.51,.48,.82,.64,.56,.3,1.13,.57,1.71,.8,1.31,.44,2.56,1.03,3.72,1.77,.79,.5,1.45,1.19,1.91,2.01,.39,.77,.58,1.63,.56,2.49,.02,1.14-.3,2.26-.93,3.21-.68,.96-1.62,1.71-2.71,2.16-1.18,.52-2.64,.78-4.38,.78-1.1,.01-2.21-.09-3.29-.31-.85-.16-1.68-.42-2.47-.78-.17-.09-.28-.27-.27-.47v-4.21c0-.08,.03-.17,.1-.21,.07-.04,.15-.03,.21,.02,.93,.55,1.94,.95,3,1.19,.93,.23,1.88,.36,2.84,.37,.91,0,1.58-.12,2.01-.35,.4-.18,.65-.58,.64-1.01,0-.34-.19-.66-.58-.97-.39-.31-1.18-.69-2.38-1.13-1.22-.43-2.38-1.01-3.45-1.75-.76-.53-1.39-1.23-1.83-2.04-.38-.77-.58-1.62-.56-2.47,0-1.03,.28-2.04,.82-2.92,.61-.97,1.49-1.74,2.53-2.22,1.14-.57,2.57-.86,4.28-.86,1,0,2.01,.06,3,.21,.72,.09,1.42,.28,2.09,.56,.11,.03,.19,.11,.23,.21,.03,.1,.04,.19,.04,.29v3.93c0,.09-.04,.18-.12,.23-.11,.05-.23,.05-.34,0Z"/></g></g></g></g></svg>