<?xml version="1.0" encoding="UTF-8"?><svg id="Capa_2" xmlns="http://www.w3.org/2000/svg" viewBox="0 0 58.05 56.59"><defs><style>.cls-1{fill:#72e9b0;}.cls-2{fill:#045b31;}</style></defs><g id="Capa_1-2"><g><g id="Surfaces"><g id="Drawing_Surface"><g id="Outline_no_shadow"><rect class="cls-2" width="58.05" height="56.59" rx="10.28" ry="10.28"/></g></g></g><g><path class="cls-1" d="m12.26,15.52c1.82-.31,4.37-.54,7.97-.54s6.23.7,7.97,2.09c1.66,1.31,2.78,3.48,2.78,6.03s-.85,4.72-2.4,6.19c-2.01,1.89-4.99,2.75-8.47,2.75-.77,0-1.47-.04-2.01-.12v9.32h-5.84V15.52Zm5.84,11.83c.5.12,1.12.15,1.97.15,3.13,0,5.07-1.58,5.07-4.25,0-2.4-1.66-3.83-4.6-3.83-1.2,0-2.01.12-2.44.23v7.69Z"/><path class="cls-1" d="m41.57,16.91v5.41h4.21v4.33h-4.21v6.84c0,2.28.54,3.33,2.32,3.33.73,0,1.31-.08,1.74-.15l.04,4.45c-.77.31-2.17.5-3.83.5-1.9,0-3.48-.66-4.41-1.62-1.08-1.12-1.62-2.94-1.62-5.61v-7.73h-2.51v-4.33h2.51v-4.1l5.76-1.31Z"/></g></g></g></svg>