<?xml version="1.0" encoding="UTF-8"?><svg id="Capa_2" xmlns="http://www.w3.org/2000/svg" viewBox="0 0 58.05 56.59"><defs><style>.cls-1{fill:#ff61f6;}.cls-2{fill:#470137;}</style></defs><g id="Capa_1-2"><g><g id="Surfaces"><g id="UI_UX_Surface"><g id="Outline_no_shadow"><rect class="cls-2" width="58.05" height="56.59" rx="10.28" ry="10.28"/></g></g></g><path class="cls-1" d="m34.43,12.07c0-2.98-2.42-5.41-5.41-5.41s-5.41,2.42-5.41,5.41,2.42,5.41,5.41,5.41,5.41-2.42,5.41-5.41Zm-8.71,8.9c-2-.71-3.76-2.05-4.97-3.87l-1.65-2.48c-.83-1.24-2.5-1.57-3.75-.74s-1.58,2.51-.75,3.75l1.66,2.47c1.53,2.29,3.62,4.09,6.01,5.27v21.85c0,1.5,1.21,2.7,2.7,2.7s2.7-1.21,2.7-2.7v-8.11h2.7v8.11c0,1.5,1.21,2.7,2.7,2.7s2.7-1.21,2.7-2.7v-21.83c2.46-1.2,4.6-3.06,6.14-5.42l1.54-2.36c.81-1.25.46-2.92-.79-3.74s-2.92-.46-3.74.79l-1.54,2.35c-1.84,2.82-4.98,4.53-8.35,4.53-1.06,0-2.1-.17-3.09-.49-.08-.03-.15-.06-.23-.08h0Z"/></g></g></svg>