<?xml version="1.0" encoding="UTF-8"?><svg id="Capa_2" xmlns="http://www.w3.org/2000/svg" viewBox="0 0 56.39 55.79"><defs><style>.cls-1{fill:#2489ca;}.cls-2{fill:#0877b9;}.cls-3{fill:#1070b3;}.cls-4{fill:#3c99d4;}</style></defs><g id="Capa_1-2"><g><path class="cls-1" d="M.54,19.45s-1.37-.99,.27-2.31l3.84-3.43s1.1-1.16,2.26-.15l35.44,26.83v12.86s-.02,2.02-2.61,1.8L.54,19.45Z"/><path class="cls-3" d="M9.67,27.75L.54,36.05s-.94,.7,0,1.95l4.24,3.86s1.01,1.08,2.5-.15l9.68-7.34-7.29-6.62Z"/><path class="cls-2" d="M25.71,27.81l16.75-12.79-.11-12.8s-.72-2.79-3.1-1.34L16.96,21.18l8.75,6.64Z"/><path class="cls-4" d="M39.74,55.07c.97,1,2.15,.67,2.15,.67l13.05-6.43c1.67-1.14,1.44-2.55,1.44-2.55V8.34c0-1.69-1.73-2.27-1.73-2.27L43.34,.61c-2.47-1.53-4.09,.27-4.09,.27,0,0,2.08-1.5,3.1,1.34V53.02c0,.35-.07,.69-.22,1-.3,.6-.94,1.16-2.5,.93l.11,.12Z"/></g></g></svg>