<?xml version="1.0" encoding="UTF-8"?><svg id="Capa_2" xmlns="http://www.w3.org/2000/svg" viewBox="0 0 58.05 56.59"><defs><style>.cls-1{fill:#ff9a00;}.cls-2{fill:#300;}</style></defs><g id="Capa_1-2"><g><g id="Surfaces"><g id="UI_UX_Surface"><g id="Outline_no_shadow"><rect class="cls-2" width="58.05" height="56.59" rx="10.28" ry="10.28"/></g></g></g><path class="cls-1" d="m33.62,12.2c-1.07-.31-2.19.32-2.5,1.39l-8.09,28.3c-.31,1.07.32,2.19,1.39,2.5s2.19-.32,2.5-1.39l8.09-28.3c.31-1.07-.32-2.19-1.39-2.5h0Zm5.09,7.59c-.79.79-.79,2.07,0,2.86l5.64,5.65-5.65,5.65c-.79.79-.79,2.07,0,2.86s2.07.79,2.86,0l7.07-7.07c.79-.79.79-2.07,0-2.86l-7.07-7.07c-.79-.79-2.07-.79-2.86,0h0Zm-19.37,0c-.79-.79-2.07-.79-2.86,0l-7.07,7.07c-.79.79-.79,2.07,0,2.86l7.07,7.07c.79.79,2.07.79,2.86,0s.79-2.07,0-2.86l-5.65-5.64,5.65-5.65c.79-.79.79-2.07,0-2.86h0Z"/></g></g></svg>