<?xml version="1.0" encoding="UTF-8"?><svg id="Capa_2" xmlns="http://www.w3.org/2000/svg" viewBox="0 0 58.05 56.59"><defs><style>.cls-1{fill:#ff61f6;}.cls-2{fill:#470137;}</style></defs><g id="Capa_1-2"><g id="Layer_2"><g id="Surfaces"><g id="UI_UX_Surface"><g id="Outline_no_shadow"><rect class="cls-2" y="0" width="58.05" height="56.59" rx="10.28" ry="10.28"/></g></g></g><g id="Outlined_Mnemonics_Logos"><g id="Xd"><path class="cls-1" d="M30.51,14.88l-7.24,11.95,7.75,12.69c.05,.09,.06,.19,.04,.29-.03,.09-.12,.03-.27,.06h-5.53c-.39,0-.66-.01-.82-.27-.52-1.01-1.04-2.02-1.56-3.02-.52-1-1.07-2.02-1.65-3.06-.58-1.04-1.16-2.09-1.73-3.15h-.04c-.52,1.04-1.06,2.08-1.62,3.12-.56,1.04-1.11,2.07-1.65,3.1-.55,1.03-1.1,2.04-1.67,3.06-.1,.23-.29,.26-.55,.26h-5.33c-.1,0-.16,.04-.18-.06-.01-.09,0-.19,.06-.27l7.52-12.34-7.32-12.38c-.08-.1-.09-.19-.04-.25,.06-.07,.14-.1,.23-.1h5.49c.12,0,.24,.01,.35,.06,.09,.05,.17,.13,.23,.21,.47,1.04,.99,2.08,1.56,3.12,.57,1.04,1.15,2.06,1.73,3.08,.58,1.01,1.12,2.04,1.62,3.08h.04c.52-1.06,1.04-2.1,1.58-3.12,.53-1.01,1.08-2.03,1.64-3.06,.56-1.03,1.1-2.04,1.62-3.06,.03-.1,.08-.18,.16-.25,.1-.05,.2-.07,.31-.06h5.1c.12-.03,.24,.04,.27,.16,.02,.08,0,.17-.08,.23h0Z"/><path class="cls-1" d="M41.69,40.39c-1.79,.03-3.57-.35-5.2-1.09-1.52-.7-2.79-1.85-3.64-3.29-.88-1.47-1.32-3.3-1.32-5.51-.01-1.79,.44-3.55,1.32-5.1,.91-1.58,2.24-2.88,3.85-3.74,1.69-.93,3.72-1.4,6.11-1.4,.13,0,.3,0,.51,.02,.21,.01,.45,.03,.74,.06v-7.67c0-.18,.08-.27,.23-.27h4.91c.11-.02,.22,.06,.23,.18,0,.02,0,.04,0,.06v23.01c0,.44,.02,.92,.06,1.44,.04,.52,.07,.99,.1,1.4,0,.17-.08,.32-.23,.39-1.27,.53-2.58,.92-3.93,1.17-1.23,.23-2.48,.34-3.74,.35Zm2.38-4.83v-10.63c-.21-.06-.43-.1-.64-.12-.27-.03-.53-.04-.8-.04-.94,0-1.88,.2-2.73,.62-.82,.41-1.53,1.03-2.04,1.79-.53,.78-.8,1.8-.8,3.08-.02,.85,.12,1.69,.41,2.49,.24,.64,.61,1.23,1.09,1.71,.46,.45,1.02,.78,1.64,.97,.65,.21,1.32,.31,2.01,.31,.36,0,.7-.01,1.01-.04,.29-.02,.58-.07,.86-.16Z"/></g></g></g></g></svg>